<?xml version="1.0" encoding="utf-8"?>
<!-- Generator: Adobe Illustrator 28.5.0, SVG Export Plug-In . SVG Version: 9.03 Build 54727)  -->
<svg version="1.0" xmlns="http://www.w3.org/2000/svg" xmlns:xlink="http://www.w3.org/1999/xlink" x="0px" y="0px"
	 viewBox="0 0 127.5 127.5" enable-background="new 0 0 127.5 127.5" xml:space="preserve">
<g id="RING">
	<path fill="#FFFFFF" d="M114.1,57.8c0-9.6-2.8-19.1-8-27.1c-5.6-8.7-14-15.5-23.6-19.3C72.3,7.5,61,7,50.6,9.9
		c-10,2.9-19,8.9-25.5,17c-6.6,8.3-10.4,18.6-10.7,29.2c-0.3,10.7,2.8,21.3,8.9,30.1c5.9,8.5,14.5,15.1,24.2,18.5
		c10.2,3.6,21.5,3.8,31.8,0.5c9.9-3.2,18.7-9.4,24.8-17.8C110.6,78.9,114,68.5,114.1,57.8z"/>
	<g>
		<g>
			<g>
				<g>
					<path fill="#3D79C1" d="M24.6,50.1c0,0-0.1,0.1-0.1,0.1c-0.8,2.6,0.1,5.5,2.4,7.1c0,0,0,0,0,0c0.2-0.1,0.4-0.2,0.5-0.3
						c0.2-0.1,0.2-0.3,0.2-0.5c0.1-0.8,0-1.6-0.2-2.3C27.1,52.6,26,51.1,24.6,50.1z"/>
					<path fill="#A48A7B" d="M24.3,55.8c0,0-0.1,0.1-0.1,0.1c-0.7,2.6,0.3,5.5,2.6,7c0,0,0,0,0,0c0.2-0.1,0.3-0.2,0.5-0.3
						c0.2-0.1,0.2-0.3,0.2-0.5c0.1-0.8,0-1.6-0.2-2.3C26.9,58.2,25.7,56.8,24.3,55.8z"/>
					<path fill="#3D79C1" d="M24,61.8c0,0-0.1,0.1-0.1,0.1c-0.7,2.6,0.4,5.5,2.7,6.9c0,0,0,0,0,0c0.2-0.1,0.3-0.2,0.5-0.3
						c0.2-0.1,0.2-0.3,0.2-0.5c0.1-0.8,0-1.6-0.3-2.3C26.6,64.2,25.4,62.8,24,61.8z"/>
					<path fill="#A48A7B" d="M24.5,68.4c0,0-0.1,0.1-0.1,0.1c-0.7,2.6,0.4,5.5,2.7,6.9c0,0,0,0,0,0c0.2-0.1,0.3-0.2,0.5-0.3
						c0.2-0.1,0.2-0.3,0.2-0.5c0.1-0.8,0-1.6-0.3-2.3C27.1,70.7,25.9,69.3,24.5,68.4z"/>
					<path fill="#3D79C1" d="M29.6,53.7c-0.2,0.7-0.4,1.5-0.3,2.3c0,0.2,0,0.4,0.2,0.5c0.2,0.1,0.3,0.2,0.5,0.3c0,0,0,0,0,0
						c2.3-1.4,3.5-4.2,2.9-6.9c0,0,0-0.1-0.1-0.1C31.3,50.7,30.1,52.1,29.6,53.7z"/>
					<path fill="#A48A7B" d="M29.2,60.2C29,61,29,61.8,29.1,62.5c0,0.2,0,0.4,0.2,0.4c0.2,0.1,0.4,0.2,0.5,0.3c0,0,0,0,0,0
						c2.1-1.7,3-4.6,2.1-7.1c0,0-0.1-0.1-0.1-0.1C30.6,57,29.5,58.5,29.2,60.2z"/>
					<path fill="#3D79C1" d="M29.5,66.5c-0.2,0.8-0.2,1.6-0.1,2.3c0,0.2,0,0.4,0.2,0.5c0.2,0.1,0.4,0.2,0.5,0.3c0,0,0,0,0,0
						c2.2-1.6,3.1-4.5,2.2-7.1c0,0-0.1-0.1-0.1-0.1C31,63.4,29.9,64.8,29.5,66.5z"/>
					<path fill="#A48A7B" d="M29.8,73c-0.2,0.8-0.2,1.6-0.1,2.3c0,0.2,0,0.4,0.2,0.5c0.2,0.1,0.4,0.2,0.5,0.3c0,0,0,0,0,0
						c2.2-1.6,3.1-4.5,2.2-7.1c0,0-0.1-0.1-0.1-0.1C31.2,69.8,30.1,71.3,29.8,73z"/>
				</g>
				<rect x="28" y="76.7" fill="#A48A7B" width="0.6" height="17.7"/>
			</g>
			<g>
				<g>
					<path fill="#A48A7B" d="M36.1,61.3c0,0-0.1,0.1-0.1,0.1c-0.8,2.5,0.1,5.3,2.3,6.8c0,0,0,0,0,0c0.2-0.1,0.3-0.2,0.5-0.3
						c0.2-0.1,0.2-0.2,0.2-0.4c0.1-0.8,0-1.5-0.1-2.3C38.5,63.6,37.5,62.2,36.1,61.3z"/>
					<path fill="#E9E3DF" d="M35.8,66.8c0,0-0.1,0.1-0.1,0.1c-0.7,2.5,0.3,5.3,2.5,6.8c0,0,0,0,0,0c0.2-0.1,0.3-0.2,0.5-0.3
						c0.2-0.1,0.2-0.3,0.2-0.4c0.1-0.8,0-1.5-0.2-2.3C38.3,69.1,37.2,67.7,35.8,66.8z"/>
					<path fill="#A48A7B" d="M35.5,72.6c0,0-0.1,0.1-0.1,0.1c-0.7,2.6,0.4,5.3,2.6,6.7c0,0,0,0,0,0c0.2-0.1,0.3-0.2,0.5-0.3
						c0.2-0.1,0.2-0.3,0.2-0.5c0.1-0.8,0-1.5-0.3-2.2C38,74.9,36.9,73.5,35.5,72.6z"/>
					<path fill="#E9E3DF" d="M36,79c0,0-0.1,0.1-0.1,0.1c-0.7,2.6,0.4,5.3,2.6,6.7c0,0,0,0,0,0c0.2-0.1,0.3-0.2,0.5-0.3
						c0.2-0.1,0.2-0.3,0.2-0.5c0.1-0.8,0-1.5-0.3-2.2C38.5,81.2,37.4,79.8,36,79z"/>
					<path fill="#A48A7B" d="M40.9,64.7c-0.2,0.7-0.4,1.5-0.3,2.2c0,0.2,0,0.3,0.2,0.5c0.2,0.1,0.3,0.2,0.5,0.3c0,0,0,0,0,0
						c2.2-1.4,3.4-4.1,2.8-6.7c0,0,0-0.1-0.1-0.1C42.6,61.8,41.4,63.1,40.9,64.7z"/>
					<path fill="#E9E3DF" d="M40.5,71c-0.2,0.7-0.2,1.5-0.1,2.3c0,0.2,0,0.3,0.2,0.4c0.2,0.1,0.3,0.2,0.5,0.2c0,0,0,0,0,0
						c2.1-1.6,2.9-4.4,2-6.9c0,0-0.1-0.1-0.1-0.1C41.8,68,40.9,69.4,40.5,71z"/>
					<path fill="#A48A7B" d="M40.9,77.2c-0.2,0.7-0.2,1.5-0.1,2.3c0,0.2,0,0.3,0.2,0.4c0.2,0.1,0.3,0.2,0.5,0.3c0,0,0,0,0,0
						c2.1-1.6,3-4.4,2.1-6.9c0,0-0.1-0.1-0.1-0.1C42.2,74.1,41.2,75.5,40.9,77.2z"/>
					<path fill="#E9E3DF" d="M41.1,83.4c-0.2,0.7-0.2,1.5-0.1,2.3c0,0.2,0,0.3,0.2,0.4c0.2,0.1,0.3,0.2,0.5,0.3c0,0,0,0,0,0
						c2.1-1.6,3-4.4,2.1-6.9c0,0-0.1-0.1-0.1-0.1C42.5,80.3,41.4,81.8,41.1,83.4z"/>
				</g>
				<rect x="39.4" y="87.5" fill="#A48A7B" width="0.6" height="8.3"/>
			</g>
		</g>
		<g>
			<g>
				<g>
					<path fill="#3D79C1" d="M102.2,54.2c-0.2,0.8-0.3,1.6-0.2,2.3c0,0.2,0,0.4,0.2,0.5c0.2,0.1,0.4,0.2,0.5,0.3c0,0,0,0,0,0
						c2.2-1.6,3.2-4.5,2.4-7.1c0,0-0.1-0.1-0.1-0.1C103.7,51.1,102.6,52.6,102.2,54.2z"/>
					<path fill="#A48A7B" d="M102.4,59.8c-0.2,0.8-0.3,1.5-0.2,2.3c0,0.2,0,0.4,0.2,0.5c0.2,0.1,0.3,0.2,0.5,0.3c0,0,0,0,0,0
						c2.3-1.5,3.3-4.3,2.6-7c0,0,0-0.1-0.1-0.1C104,56.8,102.9,58.2,102.4,59.8z"/>
					<path fill="#3D79C1" d="M102.7,65.8c-0.2,0.7-0.3,1.5-0.3,2.3c0,0.2,0,0.4,0.2,0.5c0.2,0.1,0.3,0.2,0.5,0.3c0,0,0,0,0,0
						c2.3-1.5,3.4-4.3,2.7-6.9c0,0,0-0.1-0.1-0.1C104.3,62.8,103.2,64.2,102.7,65.8z"/>
					<path fill="#A48A7B" d="M102.2,72.3c-0.2,0.7-0.3,1.5-0.3,2.3c0,0.2,0,0.4,0.2,0.5c0.2,0.1,0.3,0.2,0.5,0.3c0,0,0,0,0,0
						c2.3-1.5,3.4-4.3,2.7-6.9c0,0,0-0.1-0.1-0.1C103.8,69.3,102.7,70.7,102.2,72.3z"/>
					<path fill="#3D79C1" d="M97,49.8c0,0-0.1,0.1-0.1,0.1c-0.6,2.7,0.5,5.4,2.9,6.9c0,0,0,0,0,0c0.2-0.1,0.3-0.2,0.5-0.3
						c0.2-0.1,0.2-0.3,0.2-0.5c0.1-0.8-0.1-1.6-0.3-2.3C99.6,52.1,98.4,50.7,97,49.8z"/>
					<path fill="#A48A7B" d="M97.8,56c0,0-0.1,0.1-0.1,0.1c-0.9,2.6-0.1,5.5,2.1,7.1c0,0,0,0,0,0c0.2-0.1,0.4-0.2,0.5-0.3
						c0.2-0.1,0.2-0.2,0.2-0.4c0.1-0.8,0.1-1.6-0.1-2.3C100.2,58.5,99.2,57,97.8,56z"/>
					<path fill="#3D79C1" d="M97.4,62.3c0,0-0.1,0.1-0.1,0.1c-0.9,2.6,0,5.5,2.2,7.1c0,0,0,0,0,0c0.2-0.1,0.4-0.2,0.5-0.3
						c0.2-0.1,0.2-0.2,0.2-0.5c0.1-0.8,0.1-1.6-0.1-2.3C99.8,64.8,98.8,63.4,97.4,62.3z"/>
					<path fill="#A48A7B" d="M97.2,68.8c0,0-0.1,0.1-0.1,0.1c-0.9,2.6,0,5.5,2.2,7.1c0,0,0,0,0,0c0.2-0.1,0.4-0.2,0.5-0.3
						c0.2-0.1,0.2-0.2,0.2-0.5c0.1-0.8,0.1-1.6-0.1-2.3C99.6,71.3,98.6,69.8,97.2,68.8z"/>
				</g>
				<rect x="101.1" y="76.7" fill="#A48A7B" width="0.6" height="16"/>
			</g>
			<g>
				<g>
					<path fill="#A48A7B" d="M90.8,65.2c-0.2,0.7-0.3,1.5-0.1,2.3c0,0.2,0,0.3,0.2,0.4c0.2,0.1,0.3,0.2,0.5,0.3c0,0,0,0,0,0
						c2.1-1.5,3.1-4.3,2.3-6.8c0,0-0.1-0.1-0.1-0.1C92.3,62.2,91.2,63.6,90.8,65.2z"/>
					<path fill="#E9E3DF" d="M91,70.7c-0.2,0.7-0.3,1.5-0.2,2.3c0,0.2,0,0.3,0.2,0.4c0.2,0.1,0.3,0.2,0.5,0.3c0,0,0,0,0,0
						c2.2-1.5,3.2-4.2,2.5-6.8c0,0,0-0.1-0.1-0.1C92.6,67.7,91.5,69.1,91,70.7z"/>
					<path fill="#A48A7B" d="M91.3,76.5C91,77.2,90.9,78,91,78.7c0,0.2,0,0.3,0.2,0.5c0.2,0.1,0.3,0.2,0.5,0.3c0,0,0,0,0,0
						c2.2-1.4,3.3-4.2,2.6-6.7c0,0,0-0.1-0.1-0.1C92.9,73.5,91.8,74.9,91.3,76.5z"/>
					<path fill="#E9E3DF" d="M90.8,82.8c-0.2,0.7-0.3,1.5-0.3,2.2c0,0.2,0,0.4,0.2,0.5c0.2,0.1,0.3,0.2,0.5,0.3c0,0,0,0,0,0
						c2.2-1.4,3.3-4.2,2.6-6.7c0,0,0-0.1-0.1-0.1C92.4,79.8,91.3,81.2,90.8,82.8z"/>
					<path fill="#A48A7B" d="M85.8,60.9c0,0-0.1,0.1-0.1,0.1c-0.6,2.6,0.5,5.3,2.8,6.7c0,0,0,0,0,0c0.2-0.1,0.3-0.2,0.5-0.3
						c0.2-0.1,0.2-0.3,0.2-0.5c0.1-0.8-0.1-1.5-0.3-2.2C88.3,63.1,87.2,61.8,85.8,60.9z"/>
					<path fill="#E9E3DF" d="M86.6,67c0,0-0.1,0.1-0.1,0.1c-0.9,2.5-0.1,5.3,2,6.9c0,0,0,0,0,0c0.2-0.1,0.3-0.2,0.5-0.2
						c0.2-0.1,0.2-0.2,0.2-0.4c0.1-0.7,0.1-1.5-0.1-2.3C88.9,69.4,87.9,68,86.6,67z"/>
					<path fill="#A48A7B" d="M86.2,73.1c0,0-0.1,0.1-0.1,0.1c-0.9,2.5,0,5.3,2.1,6.9c0,0,0,0,0,0c0.2-0.1,0.3-0.2,0.5-0.3
						c0.2-0.1,0.2-0.2,0.2-0.4c0.1-0.8,0.1-1.5-0.1-2.3C88.5,75.5,87.5,74.1,86.2,73.1z"/>
					<path fill="#E9E3DF" d="M86,79.4c0,0-0.1,0.1-0.1,0.1c-0.9,2.5,0,5.3,2.1,6.9c0,0,0,0,0,0c0.2-0.1,0.3-0.2,0.5-0.3
						c0.2-0.1,0.2-0.2,0.2-0.4c0.1-0.8,0.1-1.5-0.1-2.3C88.3,81.8,87.3,80.3,86,79.4z"/>
				</g>
				<rect x="89.7" y="87.5" fill="#A48A7B" width="0.6" height="8.3"/>
			</g>
		</g>
	</g>
	<g>
		<path fill="#A48A7B" d="M23.7,82.6c-0.6-1-1.2-2.1-1.7-3.1l0.5-0.3c0.5,1,1.1,2.1,1.7,3.1L23.7,82.6z M104.5,83.1l-0.5-0.3
			c0.6-1,1.2-2,1.8-3.1l0.5,0.3C105.8,81,105.2,82.1,104.5,83.1z M20.4,76.2c-0.5-1.1-0.9-2.2-1.3-3.3l0.6-0.2
			c0.4,1.1,0.8,2.2,1.2,3.3L20.4,76.2z M107.9,76.7l-0.5-0.2c0.5-1.1,0.9-2.2,1.3-3.3l0.6,0.2C108.8,74.5,108.3,75.6,107.9,76.7z
			 M18.2,69.4c-0.3-1.2-0.5-2.3-0.7-3.5l0.6-0.1c0.2,1.2,0.4,2.3,0.7,3.5L18.2,69.4z M110.2,70l-0.6-0.2c0.3-1.1,0.6-2.3,0.8-3.4
			l0.6,0.1C110.8,67.6,110.5,68.8,110.2,70z M16.9,62.4c-0.1-1.2-0.2-2.4-0.2-3.6l0.6,0c0,1.2,0.1,2.4,0.2,3.5L16.9,62.4z
			 M111.5,62.9l-0.6-0.1c0.1-1.2,0.2-2.4,0.2-3.5l0.6,0C111.7,60.5,111.6,61.7,111.5,62.9z M17.4,55.3l-0.6,0
			c0.1-1.2,0.2-2.4,0.3-3.6l0.6,0.1C17.6,52.9,17.5,54.1,17.4,55.3z M111.2,58c0-1.2,0-2.4-0.1-3.5l0.6,0c0.1,1.2,0.1,2.4,0.1,3.6
			L111.2,58z M18.3,48.3l-0.6-0.1c0.2-1.2,0.5-2.3,0.9-3.5l0.6,0.2C18.8,45.9,18.5,47.1,18.3,48.3z M110.7,50.9
			c-0.2-1.2-0.4-2.3-0.6-3.5l0.6-0.1c0.3,1.2,0.5,2.3,0.7,3.5L110.7,50.9z M20.3,41.5l-0.6-0.2c0.4-1.1,0.9-2.2,1.4-3.3l0.5,0.2
			C21.1,39.3,20.7,40.4,20.3,41.5z M109.1,44c-0.3-1.1-0.7-2.2-1.2-3.3l0.6-0.2c0.4,1.1,0.8,2.2,1.2,3.4L109.1,44z M23.2,35
			l-0.5-0.3c0.6-1,1.2-2.1,1.9-3.1l0.5,0.3C24.4,33,23.8,34,23.2,35z M106.5,37.4c-0.5-1.1-1.1-2.1-1.7-3.1l0.5-0.3
			c0.6,1,1.2,2.1,1.7,3.2L106.5,37.4z M27.1,29.1l-0.5-0.4c0.7-0.9,1.5-1.9,2.3-2.7l0.4,0.4C28.6,27.3,27.8,28.2,27.1,29.1z
			 M103,31.3c-0.7-1-1.4-1.9-2.1-2.8l0.5-0.4c0.7,0.9,1.5,1.9,2.1,2.9L103,31.3z M31.8,23.9l-0.4-0.4c0.9-0.8,1.8-1.6,2.7-2.4
			l0.4,0.5C33.6,22.3,32.7,23.1,31.8,23.9z M98.6,25.8c-0.8-0.9-1.6-1.7-2.5-2.5l0.4-0.4c0.9,0.8,1.7,1.7,2.5,2.5L98.6,25.8z
			 M37.3,19.4L37,18.9c1-0.7,2-1.3,3-1.9l0.3,0.5C39.3,18.1,38.3,18.7,37.3,19.4z M93.4,21c-0.9-0.7-1.9-1.4-2.9-2.1l0.3-0.5
			c1,0.7,2,1.4,2.9,2.1L93.4,21z M43.4,15.8l-0.3-0.5c1.1-0.5,2.2-1,3.3-1.5l0.2,0.5C45.5,14.8,44.4,15.3,43.4,15.8z M87.5,17.1
			c-1-0.6-2.1-1.1-3.1-1.6l0.3-0.5c1.1,0.5,2.1,1.1,3.2,1.7L87.5,17.1z M49.9,13.1l-0.2-0.6c1.1-0.4,2.3-0.7,3.4-1l0.1,0.6
			C52.2,12.5,51,12.8,49.9,13.1z M81.1,14c-1.1-0.4-2.2-0.8-3.3-1.1l0.2-0.6c1.1,0.3,2.3,0.7,3.4,1.2L81.1,14z M56.8,11.5l-0.1-0.6
			c1.2-0.2,2.4-0.3,3.6-0.4l0,0.6C59.1,11.2,57.9,11.3,56.8,11.5z M74.4,12c-1.1-0.3-2.3-0.5-3.5-0.6l0.1-0.6
			c1.2,0.2,2.4,0.4,3.5,0.6L74.4,12z M63.8,10.9l0-0.6c0.6,0,1.3,0,1.9,0c0,0,0,0,0,0c0.5,0,1.1,0,1.6,0.1l0,0.6
			c-0.5,0-1.1-0.1-1.6-0.1C65.1,10.9,64.5,10.9,63.8,10.9z"/>
	</g>
	<g>
		<g>
			<path fill="#E9E3DF" d="M92.6,36.5c0.7-0.9,2.9-0.3,4.4,0.4l0.7,0.3l-0.5-0.6c-0.9-1.3-2.1-3.3-1.4-4.2c0.5-0.6,0.7-0.8,0.9-0.8
				c-0.3-0.3-1-0.9-1.8-0.6c-2,0.6-2.3,1.8-2.3,2.4c-0.6,0.1-1.7,0.6-1.8,2.8c-0.1,0.8,0.6,1.3,1,1.6C92,37.4,92.1,37.1,92.6,36.5z"
				/>
		</g>
		<g>
			<path fill="#E9E3DF" d="M36.2,36.6c-0.8-0.9-3-0.2-4.4,0.5l-0.7,0.3l0.4-0.6c0.9-1.3,2-3.4,1.3-4.3c-0.5-0.6-0.8-0.8-0.9-0.8
				c0.3-0.4,0.9-0.9,1.7-0.7c2.1,0.6,2.3,1.7,2.3,2.3c0.6,0.1,1.7,0.6,1.9,2.7c0.1,0.8-0.6,1.3-1,1.6C36.9,37.5,36.7,37.2,36.2,36.6
				z"/>
		</g>
	</g>
	<path fill="#3D79C1" d="M106.2,27.8C100,19.2,91.3,12.7,81.4,9.2C71.1,5.5,59.7,5.3,49.2,8.5c-10,3-19,9.2-25.5,17.5
		c-6.6,8.4-10.5,18.8-11,29.5c-0.5,10.8,2.5,21.6,8.4,30.6c5.8,8.8,14.2,15.6,23.9,19.6c10.1,4.1,21.5,4.8,32.1,2.1
		c10.2-2.6,19.5-8.4,26.3-16.4c7-8.1,11.2-18.3,12.2-28.9c0.1-1.5,0.2-3.1,0.2-4.6C115.8,47.1,112.4,36.5,106.2,27.8z M79.4,105.3
		c-10.3,3.3-21.6,3.1-31.8-0.5c-9.8-3.4-18.3-10-24.2-18.5c-6.1-8.8-9.2-19.4-8.9-30.1c0.3-10.6,4.1-20.9,10.7-29.2
		c6.5-8.2,15.4-14.2,25.5-17C61,7,72.3,7.5,82.4,11.4c9.6,3.7,18,10.6,23.6,19.3c5.2,8,8,17.5,8,27.1c0,10.7-3.5,21.1-9.8,29.7
		C98.1,95.9,89.3,102.1,79.4,105.3z"/>
</g>
<g id="Layer_1">
	<path fill="#634E42" d="M50.2,44.8c0.7,0.5,1.4,0.6,2.1,1.2c0.6,0.6,1.3,1,2,1.5c1.3,1,2.3,2.4,3.3,3.7c2,2.6,4.1,5.3,7.5,5.9
		c2.3,0.4,5.2,0.7,7.3-0.4c2.2-1.1,3.3-3.7,6-3.5c-0.1,0.3-0.2,0.7-0.1,1.1c1.6,0.4,2.4-2.8,4.1-1.2c1.2,1.2-0.6,2.4-1.1,3.5
		c0.8-0.7,2.3-1.8,2.6,0c0.2,1.2-1.2,2.6-1.6,3.7c1-0.9,1.8-0.1,2.2,0.8c0.3,0.9,0.1,1.8-0.4,2.5c-0.9,1.2-3.4,2.5-3.6,3.9
		c-0.1,0.8,0.3,1.6-0.2,2.4c-0.4,0.7-0.1,0.3-0.8,0.6c-0.4,0.2-0.8,0.3-1.2,0.6c-1.1,0.9-1.3,2-2,3.1c-0.2,0.3-0.6,0.8-1,0.8
		c-0.5-0.1-0.4-0.6-0.7-1c-0.6,0.3-0.6,0.9-1,1.4c-0.5,0.7-1.1,0.4-1.8,0.9c-0.9,0.7-1.5,3-3.1,2c-0.5,1-1.3,0-2-0.1
		c-1.5-0.2-1.9,1.1-1.4,2.1c0.6,1.5,0.6,2.1,0.3,3.7c-2.6-0.2-0.7,2.3-0.7,3.4c-0.8-0.6-1.8-0.1-2.6,0c0.1-0.1,0.1-0.3,0.1-0.4
		c-0.2,0-0.3,0-0.5-0.1c-0.5-0.7,0.4-0.9,0.7-1.5c0.3-0.6,0.5-3.3-1-2.4c-0.8,0.5-0.2,2.1,0,2.8c0.2,0.8,0.3,1.5,0.3,2.3
		c-1.2-1.7-5.1-0.5-6.7,0c0.1-0.5,0.7-0.7,1-1c-0.6-0.1-1.4-0.5-1.9-0.8c0.8-0.3,1.8-0.2,2.6,0c-0.6-0.3-1.4-0.2-1.9-0.6
		c0.4-0.5,1.2-0.3,1.8-0.3c0.9,0,1.5-0.2,2.1-0.8c0.6-0.6,1.7-2.1,1.6-2.9c0-0.9-1.2-1.8-1.6-2.7c-0.6-1.1-1-2-2.1-2.8
		c-0.6-0.5-1.3-0.7-1.9-1.1c-0.6-0.4-0.9-1.1-1.4-1.6c-1.1-1.2-2.7-1.9-3.9-3c-2.2-2-3-4.2-3.5-6.7c-0.5-2.4-0.4-5.2,0.2-7.7
		c0.3-1.3,1.3-4.1-0.1-5c-0.6,1.2-2.2,0.3-2.5-0.6c-0.3-0.9,0.6-1.8,0.3-2.7c-0.2-0.9-1.2-0.4-1.9,0.2c-0.2-0.7,0.1-1.1,0.7-1.5
		c1.2-0.9,0.5-1.1,0.1-2.2c-0.4-1,0.1-1.6,1.3-1.6c-0.4-0.5,0-1.2,0.6-1.5c0.7-0.3,1.3,0,1.6,0.6c0.9-0.9,3.1-0.7,2.5,0.8
		c2.4-0.4,0.8,1.6,1.3,2.3C50.1,44.7,50.1,44.8,50.2,44.8z"/>
</g>
<g id="BANNER">
	<g>
		<g>
			<g>
				<path fill="#3D79C1" d="M14.5,100.7H14l-0.2-0.2c0,0-0.1-0.1-0.1-0.1h0.5C14.3,100.5,14.4,100.6,14.5,100.7z"/>
				<g>
					<path fill="#3D79C1" d="M14.5,100.7h-0.6l-0.1-0.1c0,0,0,0,0-0.1c0,0-0.1-0.1-0.1-0.1h0.2c0-0.1,0.1-0.2,0.1-0.2
						c0.1,0.1,0.2,0.2,0.2,0.2C14.3,100.5,14.4,100.6,14.5,100.7z"/>
					<path fill="#3D79C1" d="M20.3,107.8C20.4,107.8,20.4,107.8,20.3,107.8C20.3,107.8,20.4,107.9,20.3,107.8z"/>
					<path fill="#3D79C1" d="M42.2,114.9v-14.6c0-0.3-0.1-0.5-0.5-0.6c0.3,0.1,0.3,0.4,0.1,0.6c0,0-0.1,0-0.1,0.1c0,0,0-0.1,0-0.1
						c0,0,0,0,0-0.1c-0.1-0.1-0.2-0.1-0.3-0.1h-0.1c0,0,0,0,0-0.1c0-0.2,0.2-0.3,0.4-0.3H13.6c-0.3,0-0.6,0-0.9,0.2
						c-0.2,0.1-0.2,0.4-0.1,0.6c0.1,0.1,0.2,0.2,0.3,0.3c0.1,0.1,0.2,0.2,0.3,0.4c2.2,2.3,4.3,4.5,6.5,6.8c0.1-0.1,0.1-0.2,0.2-0.2
						v0.5c-0.1-0.1-0.2-0.2-0.2-0.2c-1.6,1.6-3.1,3.2-4.7,4.8c-0.4,0.4-0.8,0.8-1.2,1.3c-0.2,0.2-0.4,0.4-0.6,0.6
						c-0.2,0.2-0.4,0.4-0.6,0.7c-0.1,0.2-0.1,0.4,0,0.6c0.2,0.3,0.5,0.2,0.8,0.2h28c0.3,0,0.6-0.1,0.7-0.4
						C42.3,115.4,42.2,115.1,42.2,114.9z M13.3,100.2C13.3,100.2,13.4,100.2,13.3,100.2c0-0.1,0-0.1,0-0.1s0,0,0,0
						C13.4,100.1,13.4,100.2,13.3,100.2C13.4,100.2,13.3,100.2,13.3,100.2z M13.9,100.7l-0.1-0.1c0,0,0,0,0-0.1c0,0-0.1-0.1-0.1-0.1
						h0.2c0-0.1,0.1-0.2,0.1-0.2c0.1,0.1,0.2,0.2,0.2,0.2c0.1,0.1,0.2,0.2,0.3,0.3H13.9z M13.2,115.3h0.1c0,0,0,0,0,0.1
						C13.3,115.4,13.2,115.3,13.2,115.3z M13.3,115.5C13.3,115.6,13.3,115.5,13.3,115.5C13.3,115.5,13.3,115.4,13.3,115.5
						C13.3,115.4,13.4,115.5,13.3,115.5C13.4,115.5,13.4,115.5,13.3,115.5z M13.7,115.1c0-0.1,0-0.1-0.1-0.1H14
						C13.9,115,13.8,115.1,13.7,115.1C13.8,115.2,13.8,115.1,13.7,115.1z M20.3,107.8C20.4,107.8,20.4,107.8,20.3,107.8
						C20.3,107.8,20.4,107.9,20.3,107.8z"/>
					<path fill="#3D79C1" d="M14,115c-0.1,0.1-0.1,0.1-0.2,0.2c0,0,0-0.1,0-0.1c0-0.1,0-0.1-0.1-0.1H14z"/>
				</g>
			</g>
			<g>
				<g>
					<path fill="#3D79C1" d="M105.4,108c-0.1-0.1-0.1-0.2,0-0.3c0,0,0-0.1,0.1-0.1C105.4,107.7,105.4,107.8,105.4,108z"/>
					<path fill="#3D79C1" d="M105.6,108.2C105.6,108.2,105.5,108.1,105.6,108.2C105.5,108.1,105.5,108.1,105.6,108.2
						C105.5,108.1,105.5,108.1,105.6,108.2z"/>
					<path fill="#3D79C1" d="M105.6,108.2C105.6,108.2,105.6,108.2,105.6,108.2L105.6,108.2L105.6,108.2z"/>
					<g>
						<path fill="#3D79C1" d="M85.1,115.5c0-0.1-0.1-0.1-0.2-0.1h0.2C85.1,115.4,85.1,115.4,85.1,115.5z"/>
						<path fill="#3D79C1" d="M85.1,100.2L85.1,100.2c-0.1,0.1-0.1,0.1-0.2,0.1C85.1,100.1,85.2,100.1,85.1,100.2z"/>
						<path fill="#3D79C1" d="M105.6,108.2C105.6,108.2,105.5,108.1,105.6,108.2C105.5,108.1,105.5,108.1,105.6,108.2
							C105.5,108.1,105.5,108.1,105.6,108.2z"/>
						<path fill="#3D79C1" d="M105.6,108.2C105.6,108.2,105.6,108.2,105.6,108.2L105.6,108.2L105.6,108.2z"/>
						<path fill="#3D79C1" d="M112.7,100.3h-0.2c0.1-0.1,0.1-0.1,0.2-0.2C112.7,100.2,112.7,100.3,112.7,100.3z"/>
					</g>
				</g>
				<g>
					<path fill="#3D79C1" d="M85.1,115.3H85c0.1,0,0.2,0.1,0.2,0.1C85.1,115.4,85.1,115.4,85.1,115.3z M85,100.3c0.1,0,0.1,0,0.2,0
						v-0.1C85.2,100.1,85.1,100.1,85,100.3z M109.6,111.2c-0.1-0.1-0.2-0.2-0.2-0.3c0,0,0,0,0,0c0,0,0,0,0,0
						c0.2,0.2,0.3,0.3,0.5,0.5c0,0,0,0,0.1,0C109.7,111.4,109.7,111.3,109.6,111.2z M112.6,100.1c-0.1,0.1-0.1,0.1-0.2,0.2h0.2
						C112.7,100.3,112.7,100.2,112.6,100.1z M113.2,100.2C113.2,100.2,113.2,100.2,113.2,100.2C113.2,100.2,113.2,100.2,113.2,100.2
						C113.2,100.1,113.2,100.2,113.2,100.2z M113.2,115.5C113.2,115.5,113.2,115.5,113.2,115.5C113.2,115.5,113.2,115.5,113.2,115.5
						C113.3,115.6,113.2,115.5,113.2,115.5z M113.3,115.3L113.3,115.3C113.3,115.4,113.3,115.4,113.3,115.3
						C113.3,115.4,113.5,115.3,113.3,115.3z M113.3,100.3C113.3,100.3,113.3,100.3,113.3,100.3C113.3,100.3,113.3,100.3,113.3,100.3
						L113.3,100.3C113.4,100.3,113.4,100.3,113.3,100.3z"/>
					<g>
						<path fill="#3D79C1" d="M114,115.4c-0.1-0.3-0.4-0.5-0.5-0.6c-1.2-1.2-2.4-2.5-3.6-3.7c0.1,0.1,0.2,0.3,0,0.5c0,0,0,0,0,0
							c0,0,0,0-0.1,0c-0.2-0.2-0.3-0.3-0.5-0.5c0,0,0,0,0,0c0,0,0,0,0,0c0.1-0.1,0.4-0.1,0.5,0c-1-1-2-2.1-3-3.1
							c-0.1,0.1-0.1,0.2-0.2,0.2v-0.5c0.1,0.1,0.1,0.2,0.2,0.2c1.6-1.6,3.1-3.2,4.6-4.8c0.4-0.4,0.8-0.8,1.2-1.2
							c0.2-0.2,0.4-0.4,0.6-0.6c0.2-0.2,0.5-0.4,0.6-0.7c0.2-0.2,0.2-0.4,0-0.6c-0.2-0.3-0.5-0.2-0.8-0.2h-28
							c-0.4,0-0.6,0.1-0.7,0.4c-0.1,0.1,0,0.3,0,0.4v15c0,0.3,0.2,0.5,0.5,0.6c0.1,0,0.3,0,0.5,0h27.5c0.3,0,0.6,0,0.9-0.1
							C113.9,115.8,114.1,115.6,114,115.4z M113.3,100.3C113.4,100.3,113.4,100.3,113.3,100.3L113.3,100.3
							C113.3,100.3,113.3,100.3,113.3,100.3C113.3,100.3,113.3,100.3,113.3,100.3z M113.2,100.1
							C113.2,100.2,113.2,100.2,113.2,100.1C113.2,100.2,113.2,100.2,113.2,100.1C113.2,100.2,113.2,100.1,113.2,100.1z
							 M112.6,100.1c0,0.1,0.1,0.1,0.1,0.2h-0.2C112.5,100.3,112.6,100.2,112.6,100.1z M85,115.3h0.2c0,0,0,0.1,0,0.1
							C85.1,115.4,85.1,115.4,85,115.3z M85.1,100.3c-0.1,0-0.1,0-0.2,0C85.1,100.1,85.2,100.1,85.1,100.3L85.1,100.3z M105.4,108
							c-0.1-0.1-0.1-0.2,0-0.3c0,0,0-0.1,0.1-0.1C105.4,107.7,105.4,107.8,105.4,108z M105.5,108.1
							C105.5,108.1,105.5,108.1,105.5,108.1C105.5,108.1,105.5,108.1,105.5,108.1C105.6,108.2,105.5,108.1,105.5,108.1z
							 M105.6,108.2L105.6,108.2L105.6,108.2C105.6,108.2,105.6,108.2,105.6,108.2z M113.2,115.5
							C113.2,115.5,113.2,115.5,113.2,115.5C113.2,115.5,113.2,115.5,113.2,115.5C113.2,115.5,113.3,115.6,113.2,115.5z
							 M113.3,115.4C113.3,115.4,113.3,115.4,113.3,115.4L113.3,115.4C113.5,115.3,113.3,115.4,113.3,115.4z"/>
						<path fill="#3D79C1" d="M85.1,115.5c0-0.1-0.1-0.1-0.2-0.1h0.2C85.1,115.4,85.1,115.4,85.1,115.5z"/>
						<path fill="#3D79C1" d="M85.1,100.2L85.1,100.2c-0.1,0.1-0.1,0.1-0.2,0.1C85.1,100.1,85.2,100.1,85.1,100.2z"/>
						<path fill="#3D79C1" d="M106.8,107.8c-0.1,0.1-0.1,0.2-0.2,0.2v-0.5C106.7,107.7,106.7,107.8,106.8,107.8z"/>
						<path fill="#3D79C1" d="M112.7,100.3h-0.2c0.1-0.1,0.1-0.1,0.2-0.2C112.7,100.2,112.7,100.3,112.7,100.3z"/>
						<path fill="#3D79C1" d="M109.8,111.4C109.8,111.4,109.8,111.4,109.8,111.4c-0.1,0-0.1,0.1-0.1,0.1c-0.2-0.2-0.3-0.3-0.5-0.5
							c0,0,0,0,0,0c0,0,0,0,0,0c0.1-0.1,0.4-0.1,0.5,0C110,111.1,110,111.3,109.8,111.4z"/>
						<path fill="#3D79C1" d="M113.2,100.1C113.2,100.2,113.2,100.2,113.2,100.1C113.2,100.2,113.2,100.2,113.2,100.1
							C113.2,100.2,113.2,100.1,113.2,100.1z"/>
						<path fill="#3D79C1" d="M113.2,115.5C113.2,115.5,113.2,115.5,113.2,115.5C113.2,115.5,113.2,115.5,113.2,115.5
							C113.2,115.5,113.3,115.6,113.2,115.5z"/>
						<path fill="#3D79C1" d="M113.3,115.4C113.3,115.4,113.3,115.4,113.3,115.4L113.3,115.4C113.5,115.3,113.3,115.4,113.3,115.4z"
							/>
						<path fill="#3D79C1" d="M113.3,100.3L113.3,100.3C113.3,100.3,113.3,100.3,113.3,100.3C113.3,100.3,113.3,100.3,113.3,100.3
							C113.4,100.3,113.4,100.3,113.3,100.3z"/>
						<path fill="#3D79C1" d="M85.1,115.5c0-0.1-0.1-0.1-0.2-0.1h0.2C85.1,115.4,85.1,115.4,85.1,115.5z"/>
						<path fill="#3D79C1" d="M85.1,100.2L85.1,100.2c-0.1,0.1-0.1,0.1-0.2,0.1C85.1,100.1,85.2,100.1,85.1,100.2z"/>
						<path fill="#3D79C1" d="M105.4,108c-0.1-0.1-0.1-0.2,0-0.3c0,0,0-0.1,0.1-0.1C105.4,107.7,105.4,107.8,105.4,108z"/>
						<path fill="#3D79C1" d="M112.7,100.3h-0.2c0.1-0.1,0.1-0.1,0.2-0.2C112.7,100.2,112.7,100.3,112.7,100.3z"/>
					</g>
				</g>
				<g>
					<path fill="#3D79C1" d="M20.4,107.8C20.4,107.8,20.4,107.8,20.4,107.8C20.4,107.9,20.3,107.8,20.4,107.8z M41.6,100h-0.4
						c0,0,0,0.1,0,0.1h0.1c0.1,0,0.2,0,0.3,0.1c0,0,0,0,0,0.1c0,0,0,0,0,0.1c0,0,0.1,0,0.1-0.1v-0.1C41.8,100.1,41.7,100,41.6,100z
						 M13.7,115c0,0.1,0.1,0.1,0.1,0.1c0.1-0.1,0.1-0.1,0.1-0.1H13.7z M13.4,100.2C13.4,100.2,13.4,100.1,13.4,100.2
						C13.3,100.1,13.3,100.1,13.4,100.2C13.3,100.1,13.3,100.2,13.4,100.2C13.4,100.2,13.3,100.2,13.4,100.2
						C13.3,100.2,13.4,100.2,13.4,100.2z M13.3,115.4C13.3,115.4,13.3,115.5,13.3,115.4C13.3,115.5,13.3,115.6,13.3,115.4
						C13.4,115.5,13.4,115.5,13.3,115.4C13.4,115.5,13.3,115.4,13.3,115.4z M13.3,115.3h-0.1C13.2,115.3,13.3,115.4,13.3,115.3
						C13.3,115.4,13.3,115.4,13.3,115.3z"/>
					<path fill="#3D79C1" d="M14.2,100.4c-0.1-0.1-0.2-0.2-0.2-0.2c0,0.1-0.1,0.2-0.1,0.2h-0.2c0,0,0.1,0.1,0.1,0.1c0,0,0,0,0,0.1
						l0.1,0.1h0.6C14.4,100.6,14.3,100.5,14.2,100.4z M13.9,115c0,0.1-0.1,0.1-0.1,0.1c0,0,0,0.1,0,0.1c0.1-0.1,0.1-0.1,0.2-0.2
						H13.9z"/>
					<g>
						<path fill="#3D79C1" d="M13.9,115c0,0.1-0.1,0.1-0.1,0.1c0-0.1,0-0.1-0.1-0.1H13.9z"/>
						<path fill="#3D79C1" d="M20,107.6v0.5c-0.1-0.1-0.2-0.2-0.2-0.2C19.8,107.8,19.9,107.7,20,107.6z"/>
						<path fill="#3D79C1" d="M20.3,107.8C20.4,107.8,20.4,107.8,20.3,107.8C20.3,107.8,20.4,107.9,20.3,107.8z"/>
						<path fill="#3D79C1" d="M13.3,115.4c0,0-0.1-0.1-0.1-0.1L13.3,115.4C13.3,115.4,13.3,115.4,13.3,115.4z"/>
						<path fill="#3D79C1" d="M13.4,115.5C13.4,115.5,13.4,115.5,13.4,115.5C13.3,115.6,13.3,115.5,13.4,115.5
							C13.3,115.5,13.3,115.4,13.4,115.5C13.3,115.4,13.4,115.5,13.4,115.5z"/>
						<path fill="#3D79C1" d="M13.3,100.2C13.3,100.2,13.4,100.2,13.3,100.2c0-0.1,0-0.1,0-0.1s0,0,0,0
							C13.4,100.1,13.4,100.2,13.3,100.2C13.4,100.2,13.3,100.2,13.3,100.2z"/>
						<path fill="#3D79C1" d="M41.8,100.2c0,0-0.1,0-0.1,0.1c0,0,0-0.1,0-0.1c0,0,0,0,0-0.1c-0.1-0.1-0.2-0.1-0.3-0.1h-0.1
							c0,0,0,0,0-0.1c0-0.2,0.2-0.3,0.4-0.3h0c0.1,0,0.1,0,0.2,0l0,0C42,99.8,42,100.1,41.8,100.2z"/>
						<path fill="#3D79C1" d="M20.3,107.8C20.4,107.8,20.4,107.8,20.3,107.8C20.3,107.8,20.4,107.9,20.3,107.8z"/>
						<path fill="#3D79C1" d="M13.9,115c0,0.1-0.1,0.1-0.1,0.1c0-0.1,0-0.1-0.1-0.1H13.9z"/>
					</g>
				</g>
			</g>
		</g>
		<path fill="#3D79C1" stroke="#FFFFFF" stroke-miterlimit="10" d="M94.2,111.4H33.6c-1.7,0-3.1-1.4-3.1-3.1V97.8
			c0-1.7,1.4-3.1,3.1-3.1h60.5c1.7,0,3.1,1.4,3.1,3.1v10.5C97.3,110,95.9,111.4,94.2,111.4z"/>
	</g>
</g>
<g id="TEXT">
	<g>
		<path fill="#3D79C1" d="M56.9,113.6c0.2,0,0.3-0.1,0.4-0.1c0.1,0,0.1,0.1,0.1,0.2c0,0.1-0.1,0.4-0.1,0.4c0,0,0,0,0,0
			c-0.1-0.1-0.2-0.1-0.4-0.1v0.5c0.3,0,0.5-0.1,0.6-0.3c0,0,0,0,0,0c0.1,0,0.1,0.2,0.1,0.4c0,0.3-0.1,0.4-0.2,0.4
			c-0.2,0-0.5,0-0.9,0c-0.4,0-0.6,0-0.8,0c0,0-0.1,0-0.1-0.1c0-0.1,0.1-0.4,0.1-0.6v-1.1c0-0.2,0-0.5-0.1-0.6c0-0.1,0.1-0.2,0.3-0.2
			c0.2,0,0.5,0,0.7,0c0.2,0,0.5,0,0.7,0c0.1,0,0.3,0.1,0.3,0.3c0,0.3-0.1,0.5-0.2,0.5c0,0-0.1,0-0.1,0c0-0.1-0.3-0.2-0.5-0.2V113.6z
			"/>
		<path fill="#3D79C1" d="M58.9,113.2c0.4,0.3,1,0.6,1,1.1c0,0.5-0.5,0.8-1.1,0.8c-0.5,0-1-0.2-1-0.5c0-0.3,0.2-0.4,0.5-0.4
			c0.1,0,0.3,0.1,0.3,0.1c0,0,0,0.1,0,0.2c0,0.1,0.1,0.2,0.2,0.2c0.1,0,0.2-0.1,0.2-0.2c0-0.1-0.1-0.3-0.2-0.3
			c-0.4-0.2-0.9-0.5-0.9-1c0-0.5,0.5-0.8,1.1-0.8c0.5,0,0.9,0.2,0.9,0.5c0,0.2-0.2,0.4-0.4,0.4c-0.1,0-0.3-0.1-0.3-0.1
			c0,0,0-0.1,0-0.2c0-0.1-0.1-0.2-0.2-0.2c-0.1,0-0.2,0.1-0.2,0.2C58.8,113,58.8,113.1,58.9,113.2z"/>
		<path fill="#3D79C1" d="M61.8,114.3c0,0.4,0.1,0.6,0.1,0.6c0,0.1,0,0.1-0.1,0.1c-0.1,0-0.4,0-0.6,0c-0.2,0-0.4,0-0.5,0
			c0,0-0.1,0-0.1-0.1c0-0.1,0.1-0.4,0.1-0.6v-1.2c0,0,0,0,0,0c-0.1,0-0.3,0.3-0.4,0.5c0,0.1-0.1,0.1-0.1,0.1c0,0-0.1-0.1-0.1-0.2
			c0-0.1-0.1-0.3-0.1-0.5c0-0.3,0.2-0.5,0.4-0.5c0.1,0,0.5-0.1,1-0.1c0.5,0,0.9,0,1,0.1c0.1,0,0.3,0.1,0.3,0.5
			c0,0.3-0.1,0.5-0.1,0.5c0,0.1-0.1,0.2-0.1,0.2c-0.1,0-0.1,0-0.1-0.1c-0.1-0.2-0.3-0.5-0.4-0.5c0,0,0,0,0,0V114.3z"/>
		<path fill="#3D79C1" d="M63.1,114.4c0.3,0,0.5,0.1,0.6,0.2l-0.1,0.3c-0.1,0.1-0.2,0.1-0.4,0.1c-0.3,0-0.4-0.1-0.5-0.2
			C62.6,114.7,62.8,114.4,63.1,114.4z"/>
		<path fill="#3D79C1" d="M64.1,113.9c-0.2,0-0.4-0.2-0.4-0.5c0-0.4,0.5-0.6,1-0.6c0.6,0,1,0.2,1,0.7c0,0.4-0.5,0.8-0.8,1
			c0.2,0,0.5-0.1,0.6-0.2c0.1,0.1,0.2,0.2,0.2,0.4c0,0.2-0.1,0.3-0.2,0.4c-0.1,0-0.5,0.1-0.8,0.1c-0.4,0-0.7,0-0.8,0
			c0,0-0.1-0.1-0.1-0.2c0-0.1,0.1-0.2,0.1-0.3c0.2-0.2,0.8-0.7,0.8-1.1c0-0.2-0.1-0.3-0.2-0.3c-0.1,0-0.2,0.1-0.2,0.2
			c0,0.1,0,0.2,0.1,0.3C64.5,113.8,64.3,113.9,64.1,113.9z"/>
		<path fill="#3D79C1" d="M68.2,113.9c0,0.7-0.5,1.1-1.2,1.1c-0.7,0-1.2-0.4-1.2-1.1c0-0.7,0.5-1.1,1.2-1.1
			C67.7,112.8,68.2,113.2,68.2,113.9z M67.3,113.9c0-0.2-0.1-0.4-0.3-0.4c-0.2,0-0.3,0.1-0.3,0.4c0,0.2,0.1,0.4,0.3,0.4
			C67.2,114.3,67.3,114.1,67.3,113.9z"/>
		<path fill="#3D79C1" d="M68.7,113.9c-0.2,0-0.4-0.2-0.4-0.5c0-0.4,0.5-0.6,1-0.6c0.6,0,1,0.2,1,0.7c0,0.4-0.5,0.8-0.8,1
			c0.2,0,0.5-0.1,0.6-0.2c0.1,0.1,0.2,0.2,0.2,0.4c0,0.2-0.1,0.3-0.2,0.4c-0.1,0-0.5,0.1-0.8,0.1c-0.4,0-0.7,0-0.8,0
			c0,0-0.1-0.1-0.1-0.2c0-0.1,0.1-0.2,0.1-0.3c0.2-0.2,0.8-0.7,0.8-1.1c0-0.2-0.1-0.3-0.2-0.3c-0.1,0-0.2,0.1-0.2,0.2
			c0,0.1,0,0.2,0.1,0.3C69.1,113.8,68.9,113.9,68.7,113.9z"/>
		<path fill="#3D79C1" d="M71.7,112.9c0,0.1-0.1,0.3-0.1,0.5v1.2c0,0.1,0,0.1,0.1,0.1c0,0,0.1,0.1,0.1,0.1c0,0.1,0,0.2-0.1,0.2
			c-0.1,0-0.3,0-0.6,0c-0.3,0-0.4,0-0.5,0c0,0-0.1,0-0.1-0.1c0-0.1,0-0.3,0-0.4v-0.8c0-0.1,0-0.1-0.1-0.2c0,0-0.1-0.1-0.1-0.2
			c0-0.1,0.3-0.3,0.5-0.4c0.2-0.1,0.4-0.1,0.6-0.1C71.6,112.8,71.7,112.8,71.7,112.9z"/>
	</g>
	<g>
		<path fill="#FFFFFF" d="M38.7,102.3c0-2.8,2.2-4.3,4.3-4.3c2,0,3.1,0.8,3.1,2.1c0,0.9-0.7,1.5-1.5,1.5c-0.5,0-0.9-0.1-1.1-0.3
			c0-0.2,0-0.5,0-0.7c0-0.4-0.1-0.7-0.5-0.7c-0.4,0-0.8,0.9-0.8,2.2c0,1.7,0.4,2.7,0.8,2.7c0.3,0,0.5-0.3,0.5-0.6
			c0-0.3-0.1-0.4-0.1-0.6c0.2-0.1,0.7-0.4,1.3-0.4c0.6,0,1.5,0.4,1.5,1.3c0,1.3-1.5,2.3-3.3,2.3C40.2,106.8,38.7,105.1,38.7,102.3z"
			/>
		<path fill="#FFFFFF" d="M46.7,99.9c0-0.6-0.2-1-0.5-1.4c0-0.6,0.8-1,1.9-1c0.8,0,1.7,0.3,2.2,0.7c-0.2,0.4-0.3,1-0.3,1.9
			c0.4-0.3,1.2-0.7,2-0.7c0.9,0,2.1,0.7,2.1,1.8v3.3c0,1,0.2,1.4,0.2,1.9c0,0.1-0.1,0.2-0.2,0.2c-0.3,0.1-0.9,0.1-1.6,0.1
			c-0.7,0-1.3-0.1-1.5-0.1c-0.1,0-0.2-0.1-0.2-0.1c0-0.2,0.1-0.7,0.1-1.4v-2.8c0-0.5-0.2-0.9-0.5-0.9c-0.1,0-0.2,0-0.3,0.1v4.1
			c0,0.5,0.1,0.8,0.1,0.9c0,0.1-0.1,0.2-0.1,0.2c-0.4,0.1-0.9,0.1-1.6,0.1c-0.7,0-1.3-0.1-1.5-0.1c-0.1,0-0.2-0.1-0.2-0.2
			c0-0.2,0.1-0.6,0.1-0.9V99.9z"/>
		<path fill="#FFFFFF" d="M55.2,102c0-0.8-0.1-1.7-0.4-1.9c0-0.4,0.6-0.8,1.5-0.8c1,0,1.8,0.2,2.3,0.4c-0.1,0.2-0.1,0.7-0.1,1.4v3.8
			c0,0.6,0.1,1.2,0.1,1.4c0,0.1-0.2,0.2-0.3,0.2c-0.2,0-0.6,0.1-1.4,0.1c-0.9,0-1.5-0.1-1.6-0.1c-0.1,0-0.1,0-0.1-0.1
			c0-0.2,0.1-0.7,0.1-1.2V102z M56.6,97.4c0.9,0,1.8,0.2,2.2,0.5L58,98.8c-0.2,0.1-0.6,0.2-1.1,0.2c-0.5,0-1.1-0.1-1.8-0.2
			C55.1,98.2,55.8,97.4,56.6,97.4z"/>
		<path fill="#FFFFFF" d="M64.2,103.9c0.7,0,1.6,0.4,1.6,1.2c0,0.9-0.9,1.7-2.8,1.7c-2.1,0-3.8-1.4-3.8-3.6c0-2.1,1.4-3.8,3.7-3.8
			c2.1,0,3,1,3,1.9c0,0.9-0.7,1.5-1.4,1.5c-0.4,0-0.8-0.1-1.1-0.2c0.1-0.3,0.1-0.7,0.1-1c0-0.4-0.2-0.7-0.5-0.7
			c-0.3,0-0.6,0.8-0.6,2c0,1.6,0.3,2.6,0.7,2.6c0.3,0,0.4-0.3,0.4-0.7c0-0.2,0-0.5,0-0.6C63.7,103.9,64,103.9,64.2,103.9z"/>
		<path fill="#FFFFFF" d="M72.7,106.6c-0.6,0-1.3,0-1.6-0.2c-0.1,0-0.4-0.5-0.5-0.8c-0.2-0.5-0.7-1.4-0.9-2.3v0.8
			c0,1.2,0.1,2,0.1,2.3c0,0.1-0.1,0.2-0.2,0.2c-0.2,0-0.7,0.1-1.5,0.1c-0.8,0-1.4-0.1-1.6-0.1c-0.1,0-0.2-0.1-0.2-0.3
			c0-0.2,0.1-1.3,0.1-2v-4.2c0-0.8-0.3-1.5-0.5-1.6c0-0.5,0.9-0.9,1.9-0.9c0.5,0,1.8,0.3,2.2,0.7c-0.2,0.7-0.4,1.7-0.4,3.1v1.2
			c0.5-0.6,0.7-1.5,1.1-2.4c0.3-0.7,1.8-1.1,2.4-1.1c0.3,0,0.5,0,0.8,0.1c-0.3,1.8-1.8,3.3-2.8,3.6c1.2,1.2,2.1,2.3,2.8,3.2
			C74,106.4,73.5,106.6,72.7,106.6z"/>
		<path fill="#FFFFFF" d="M80.6,102.9c0,0.4-0.8,0.6-1.7,0.6c-0.7,0-1.6-0.1-2-0.2c0,1.4,0.4,2.3,0.8,2.3c0.3,0,0.4-0.3,0.4-0.6
			c0-0.2,0-0.4-0.1-0.6c0.2-0.2,0.5-0.2,0.7-0.2c0.7,0,1.4,0.5,1.6,1.2c-0.5,0.8-1.5,1.3-3.1,1.3c-2.1,0-3.6-1.2-3.6-3.5
			c0-2.2,1.5-3.8,3.8-3.8C79.3,99.4,80.6,100.2,80.6,102.9z M76.9,102.7c0.4,0,0.8-0.1,1-0.2c0-1.2-0.2-2-0.5-2
			C77,100.5,76.9,101.5,76.9,102.7z"/>
		<path fill="#FFFFFF" d="M86.4,99.4c1.3,0,2.3,1,2.3,2.1v3.2c0,1,0.1,1.3,0.1,1.5c0,0.2-0.1,0.3-0.2,0.3c-0.3,0.1-0.9,0.1-1.6,0.1
			c-0.7,0-1.2-0.1-1.5-0.1c-0.1,0-0.2-0.1-0.2-0.2c0-0.2,0-0.7,0-0.9v-3c0-0.5-0.2-1-0.6-1c-0.1,0-0.2,0-0.3,0.1v3.1
			c0,0.7,0.1,1.4,0.1,1.6c0,0.1-0.2,0.3-0.2,0.3c-0.3,0.1-0.9,0.1-1.5,0.1c-0.4,0-1.1,0-1.4-0.1c-0.2,0-0.3-0.1-0.3-0.3
			c0-0.2,0.1-0.5,0.1-1v-3.6c0-0.5-0.2-0.8-0.4-1c0-0.5,0.9-1,1.7-1c0.7,0,1.3,0.3,1.6,0.8C84.6,99.8,85.5,99.4,86.4,99.4z"/>
	</g>
	<g>
		<g>
			<g>
				<path fill="#3D79C1" d="M37.1,32.6c-1.1-2.4,0.1-4.6,2-5.3c1.7-0.7,3-0.3,3.4,0.8c0.3,0.8-0.1,1.6-0.8,1.8
					c-0.4,0.1-0.8,0.2-1,0.1c0-0.2-0.1-0.4-0.2-0.6c-0.1-0.3-0.4-0.6-0.7-0.5c-0.4,0.1-0.4,1.1,0.1,2.2c0.6,1.5,1.3,2.3,1.6,2.1
					c0.2-0.1,0.3-0.5,0.2-0.7c-0.1-0.2-0.2-0.4-0.3-0.5c0.1-0.2,0.5-0.6,0.9-0.7c0.5-0.2,1.4,0,1.6,0.7c0.4,1.2-0.5,2.4-1.9,3
					C40,35.9,38.2,35.1,37.1,32.6z"/>
				<path fill="#3D79C1" d="M51,29.7c0.2,1.1,0.5,1.8,0.6,2c0,0.1,0,0.2-0.1,0.2c-0.2,0.1-0.8,0.3-1.2,0.4c-0.4,0.1-1.3,0.2-1.5,0.2
					c-0.1,0-0.2-0.1-0.2-0.2c0-0.2-0.2-1.2-0.4-2c-0.1-0.3-0.1-0.5-0.2-0.9c-0.4,0.1-0.6,0.2-1.1,0.3c0.1,0.3,0.1,0.5,0.2,0.8
					c0.3,1,0.6,1.7,0.7,2c0,0.1,0,0.2-0.1,0.2c-0.2,0.1-0.9,0.4-1.3,0.5c-0.4,0.1-1.2,0.3-1.4,0.3c-0.1,0-0.2-0.1-0.2-0.2
					c-0.1-0.2-0.3-1.2-0.5-1.9c-0.4-1.2-0.6-1.8-1-3c-0.2-0.7-0.6-1.4-0.9-1.6c-0.1-0.4,0.2-1,1.4-1.4c0.4-0.1,1.6-0.2,2.1,0
					c0,0.5,0.1,1.1,0.3,1.9c0.1,0.4,0.2,0.6,0.3,1c0.4-0.1,0.7-0.2,1.1-0.3c-0.1-0.3-0.1-0.5-0.2-0.9c-0.2-0.7-0.5-1.4-0.7-1.7
					c-0.1-0.4,0.3-1,1.6-1.3c0.4-0.1,1.5-0.1,2,0.2c0,0.5,0,1.1,0.2,2C50.6,27.8,50.8,28.5,51,29.7z"/>
				<path fill="#3D79C1" d="M54.9,29c0.2,1.1,0.4,1.8,0.4,2c0,0.1-0.1,0.2-0.2,0.2c-0.2,0.1-0.6,0.2-1.3,0.3
					c-0.7,0.1-1.3,0.2-1.4,0.1c-0.1,0-0.2-0.1-0.2-0.2c0-0.2-0.1-1.2-0.3-2c-0.2-1.2-0.4-1.9-0.6-3.1c-0.1-0.7-0.4-1.3-0.6-1.6
					c-0.1-0.4,0.3-1,1.6-1.2c0.4-0.1,1.6,0,2,0.3c-0.1,0.4-0.1,1,0.1,1.8C54.6,27.1,54.7,27.7,54.9,29z"/>
				<path fill="#3D79C1" d="M56,30.9c0-0.2,0-0.6,0-1.3c-0.2-1.6-0.3-2.4-0.5-3.9c-0.1-0.8-0.4-1.5-0.6-1.8c0-0.2,0.3-0.5,0.8-0.7
					c0.6-0.2,1.3-0.3,2-0.3c0.7-0.1,1.4,0,2,0c0.3,0,0.7,0.4,0.8,1c0.1,1.1-0.2,1.7-0.3,1.7c-0.1,0-0.2,0-0.2-0.1
					c-0.2-0.2-0.7-0.5-1.3-0.5c0.1,0.6,0.1,0.9,0.1,1.5c0.4,0,0.7-0.3,1-0.3c0.2,0,0.4,0.3,0.4,0.5c0,0.4-0.1,1.1-0.3,1.1
					c0,0-0.1,0-0.1-0.1c-0.3-0.2-0.4-0.2-0.9-0.2c0.1,0.7,0.1,1,0.1,1.7c0,0.5,0.2,1,0.2,1.2c0,0.1,0,0.2-0.1,0.3
					c-0.3,0.1-0.8,0.2-1.5,0.3c-0.6,0.1-1.1,0.1-1.3,0C56.1,31.1,56.1,31.1,56,30.9z"/>
				<path fill="#3D79C1" d="M62.7,22.7c1.1,0,2.2,0.6,2.4,1.2c0.2,0.4,1.5,5.5,1.6,5.8c0.1,0.2,0.3,0.5,0.2,0.8
					c0,0.2-0.5,0.3-1.5,0.3c-0.8,0-1.2-0.1-1.4-0.1c-0.2,0-0.2-0.1-0.2-0.2c0-0.1,0-0.2,0-0.3c0-0.1,0-0.2,0-0.2
					c-0.1-0.3-0.1-0.4-0.2-0.6c-0.6,0-0.9,0-1.5,0c-0.1,0.2-0.1,0.3-0.1,0.5c0,0.1-0.1,0.2-0.1,0.3c0,0.1,0,0.2,0,0.3
					c0,0.1-0.1,0.2-0.2,0.2c-0.1,0-0.3,0.1-0.6,0.1c-0.5,0-0.6,0-0.8,0c-0.1,0-0.2,0-0.2-0.1c0-0.1,0.1-0.2,0.1-0.4
					c0.1-0.2,1.5-5.8,1.5-6c0.1-0.4,0.1-0.7,0.2-1C62.1,23,62.4,22.7,62.7,22.7z M62.9,26c-0.2,0.9-0.2,1.3-0.4,2.2
					c0.3,0,0.5,0,0.8,0C63.1,27.4,63,26.9,62.9,26z"/>
				<path fill="#3D79C1" d="M76.3,29.7c-0.2,1.1-0.3,1.8-0.3,2.1c0,0.1-0.1,0.2-0.2,0.2c-0.3,0-0.6,0-1.3-0.2
					c-0.6-0.1-1.3-0.3-1.4-0.4c-0.1,0-0.1-0.1-0.1-0.3c0-0.2,0.3-1.2,0.4-2c0.1-0.3,0.1-0.5,0.1-0.9c-0.7,1.2-1.1,1.7-1.7,2.9
					c-0.1,0.2-0.2,0.2-0.4,0.2c-0.1,0-0.2-0.1-0.3-0.3c-0.5-1.4-0.7-2.1-1.2-3.5c-0.1,0.8-0.1,1.3-0.2,2.1c-0.1,0.5,0.1,0.9,0.1,1
					c0,0.1-0.1,0.2-0.2,0.2c-0.1,0-0.5,0-1,0c-0.5,0-0.9-0.1-1-0.2c-0.1,0-0.1-0.1-0.1-0.3c0-0.2,0.2-1,0.2-1.4
					c0.1-1.5,0.1-2.2,0.2-3.7c0-0.8-0.1-1.5-0.3-1.8c0-0.5,1.2-0.8,2.2-0.7c0.4,0,1.4,0.4,1.7,1.2c0.4,1.2,0.7,1.8,1.1,3
					c0.7-1.1,1.1-1.7,1.8-2.8c0.3-0.5,0.8-0.7,1.6-0.5c0.8,0.1,1.5,0.5,1.7,1c-0.2,0.4-0.4,1-0.6,1.9C76.7,27.8,76.6,28.4,76.3,29.7
					z"/>
				<path fill="#3D79C1" d="M80.2,33c-1.4-0.4-2.1-0.6-3.5-0.9c-0.1,0-0.1-0.1-0.1-0.3c0-0.2,0.4-1.2,0.5-1.9c0.3-1.3,0.5-2,0.8-3.3
					c0.2-0.7,0.3-1.5,0.2-1.8c0-0.2,0.3-0.5,0.8-0.3c1.4,0.3,2.2,0.5,3.6,0.9c1.1,0.3,2.1,1.2,1.8,2.3c-0.5,1.4-1.6,1.6-2.4,1.5
					c0.8,0.5,1.7,1.2,1.2,2.5C82.7,33.1,81.3,33.4,80.2,33z M80.7,28.6c0.4,0.1,0.7-0.2,0.9-0.9c0.2-0.6,0.2-1.1-0.3-1.3
					C81.1,27.3,80.9,27.7,80.7,28.6z M79.8,31.7c0.4,0.1,0.8-0.2,1-1c0.2-0.8,0.1-1.2-0.3-1.4C80.2,30.3,80.1,30.7,79.8,31.7z"/>
				<path fill="#3D79C1" d="M87.8,27.2c1.1,0.4,1.8,1.4,1.8,2.1c0,0.4-0.6,5.6-0.7,6c0,0.2,0,0.6-0.1,0.8c-0.1,0.2-0.6,0.1-1.6-0.3
					c-0.8-0.3-1.1-0.5-1.3-0.6c-0.2-0.1-0.2-0.2-0.1-0.3c0-0.1,0.1-0.1,0.1-0.2c0-0.1,0.1-0.2,0.1-0.2c0-0.3,0-0.4,0.1-0.6
					c-0.6-0.2-0.8-0.3-1.4-0.5c-0.1,0.2-0.2,0.2-0.3,0.4c-0.1,0.1-0.1,0.2-0.2,0.3c0,0.1-0.1,0.2-0.1,0.3c0,0.1-0.2,0.1-0.2,0.1
					c-0.1,0-0.3-0.1-0.6-0.2c-0.4-0.2-0.6-0.2-0.7-0.3c-0.1,0-0.1-0.1-0.1-0.2c0-0.1,0.1-0.1,0.2-0.3c0.2-0.2,3.6-4.8,3.7-5
					c0.2-0.3,0.4-0.6,0.6-0.9C87.1,27.3,87.5,27,87.8,27.2z M86.7,30.3c-0.5,0.8-0.7,1.2-1.2,1.9c0.3,0.1,0.5,0.2,0.8,0.3
					C86.4,31.7,86.5,31.2,86.7,30.3z"/>
			</g>
		</g>
	</g>
</g>
</svg>
